<?xml version="1.0" standalone="no"?>
<!DOCTYPE svg PUBLIC "-//W3C//DTD SVG 20010904//EN"
 "http://www.w3.org/TR/2001/REC-SVG-20010904/DTD/svg10.dtd">
<svg version="1.0" xmlns="http://www.w3.org/2000/svg"
 width="322.000000pt" height="102.000000pt" viewBox="0 0 322.000000 102.000000"
 preserveAspectRatio="xMidYMid meet">

<g transform="translate(0.000000,102.000000) scale(0.100000,-0.100000)"
fill="#000000" stroke="none">
<path d="M225 744 c-82 -85 -151 -161 -153 -168 -3 -13 289 -316 304 -316 5 1
20 10 33 21 l25 20 -132 132 c-73 73 -132 137 -132 143 0 5 51 60 113 122 164
161 152 144 119 174 l-27 26 -150 -154z"/>
<path d="M941 876 c-12 -12 -21 -26 -21 -32 0 -5 56 -65 125 -134 69 -69 125
-129 125 -135 0 -5 -59 -66 -130 -134 -72 -68 -130 -129 -130 -136 0 -6 11
-22 25 -35 l26 -24 159 159 c88 88 160 164 160 170 0 6 -72 81 -159 167 l-159
156 -21 -22z"/>
<path d="M728 758 c-31 -68 -90 -199 -132 -292 -42 -93 -75 -170 -74 -171 2
-1 18 -10 35 -19 l32 -16 20 37 c32 65 241 540 241 550 0 9 -42 33 -59 33 -4
0 -32 -55 -63 -122z"/>
<path d="M1316 299 c-23 -18 -26 -28 -26 -78 0 -83 12 -95 102 -99 78 -3 120
10 126 41 4 21 -24 23 -32 2 -7 -19 -136 -21 -154 -3 -7 7 -12 33 -12 60 0 57
15 68 88 68 34 0 57 -6 75 -20 32 -26 39 -25 35 2 -4 32 -43 48 -114 48 -47 0
-67 -5 -88 -21z"/>
<path d="M1634 296 c-15 -12 -19 -27 -19 -76 0 -82 20 -100 110 -100 90 0 115
21 115 99 0 79 -14 91 -111 91 -49 0 -82 -5 -95 -14z m176 -25 c15 -28 12 -97
-4 -110 -9 -7 -42 -11 -88 -9 l-73 3 -3 53 c-4 73 6 82 89 82 57 0 70 -3 79
-19z"/>
<path d="M1940 215 l0 -95 90 0 c83 0 93 2 115 25 20 19 25 34 25 72 0 28 -7
58 -16 71 -14 20 -23 22 -115 22 l-99 0 0 -95z m188 66 c9 -5 12 -26 10 -67
l-3 -59 -87 -3 -88 -3 0 64 c0 35 3 67 7 70 9 10 145 8 161 -2z"/>
<path d="M2270 215 l0 -95 105 0 c87 0 105 3 105 15 0 12 -17 15 -96 15 l-95
0 3 28 c3 26 4 27 78 30 109 4 114 22 7 22 l-87 0 0 30 0 30 95 0 c57 0 95 4
95 10 0 6 -42 10 -105 10 l-105 0 0 -95z"/>
<path d="M2580 215 c0 -57 4 -95 10 -95 6 0 10 16 10 35 l0 35 90 0 90 0 0
-35 c0 -19 4 -35 10 -35 13 0 11 161 -2 177 -7 9 -41 13 -109 13 l-99 0 0 -95z
m195 40 l0 -30 -87 -3 -88 -3 0 36 0 36 88 -3 87 -3 0 -30z"/>
<path d="M2941 263 l50 -47 -53 -48 c-33 -29 -47 -47 -37 -48 9 0 37 18 62 41
l47 40 49 -41 c67 -57 87 -46 22 12 l-51 46 51 46 c39 35 47 46 31 46 -11 0
-25 -7 -32 -15 -7 -9 -26 -25 -42 -36 l-28 -20 -44 35 c-65 54 -85 45 -25 -11z"/>
</g>
</svg>
